<svg xmlns="http://www.w3.org/2000/svg" width="141" height="141" viewBox="0 0 47 47">
  <metadata><?xpacket begin="﻿" id="W5M0MpCehiHzreSzNTczkc9d"?>
<x:xmpmeta xmlns:x="adobe:ns:meta/" x:xmptk="Adobe XMP Core 5.6-c138 79.159824, 2016/09/14-01:09:01        ">
   <rdf:RDF xmlns:rdf="http://www.w3.org/1999/02/22-rdf-syntax-ns#">
      <rdf:Description rdf:about=""/>
   </rdf:RDF>
</x:xmpmeta>
                                                                                                    
                                                                                                    
                                                                                                    
                                                                                                    
                                                                                                    
                                                                                                    
                                                                                                    
                                                                                                    
                                                                                                    
                                                                                                    
                                                                                                    
                                                                                                    
                                                                                                    
                                                                                                    
                                                                                                    
                                                                                                    
                                                                                                    
                                                                                                    
                                                                                                    
                                                                                                    
                           
<?xpacket end="w"?></metadata>
<defs>
    <style>
      .cls-1 {
        fill: #6cc;
      }

      .cls-2 {
        fill: #fff;
        fill-rule: evenodd;
      }
    </style>
  </defs>
  <circle class="cls-1" cx="23.5" cy="23.5" r="17.5"/>
  <path id="_" data-name="" class="cls-2" d="M31.461,15.465c-0.75-.75-2.625,0-3.75,1.125l-1.875,1.875L18.044,16.6a0.392,0.392,0,0,0-.352.094l-1.5,1.5a0.4,0.4,0,0,0-.105.316,0.412,0.412,0,0,0,.2.281l5.953,3.27L19.2,25.1l-2.273-.621a0.229,0.229,0,0,0-.094-0.012,0.391,0.391,0,0,0-.27.105l-1.125,1.137a0.4,0.4,0,0,0-.106.293,0.356,0.356,0,0,0,.152.27l2.953,2.215,2.215,2.953a0.379,0.379,0,0,0,.281.152h0.023a0.391,0.391,0,0,0,.27-0.105l1.125-1.125A0.384,0.384,0,0,0,22.45,30l-0.621-2.273,3.035-3.035,3.269,5.953a0.336,0.336,0,0,0,.246.188,0.229,0.229,0,0,0,.082.012,0.361,0.361,0,0,0,.223-0.07l1.5-1.125a0.384,0.384,0,0,0,.141-0.387L28.45,21.1l1.887-1.887C31.461,18.09,32.211,16.215,31.461,15.465Z"/>
</svg>
