<?xml version="1.0" encoding="utf-8"?>
<!-- Generator: Adobe Illustrator 22.0.0, SVG Export Plug-In . SVG Version: 6.00 Build 0)  -->
<svg version="1.1" id="Layer_1" xmlns="http://www.w3.org/2000/svg" xmlns:xlink="http://www.w3.org/1999/xlink" x="0px" y="0px"
	 viewBox="0 0 131 132.6" style="enable-background:new 0 0 131 132.6;" xml:space="preserve">
<style type="text/css">
	.st0{fill:#66CCCC;}
	.st1{fill:#FFFFFF;}
	.st2{display:none;fill:#FCFAFB;}
</style>
<circle class="st0" cx="65.8" cy="66.2" r="64.5"/>
<circle class="st1" cx="65.8" cy="66.2" r="57.8"/>
<circle class="st0" cx="65.8" cy="66.2" r="50.9"/>
<path class="st2" d="M66.8,38.9c-11.3,0-20.5,9.2-20.5,20.5c0,13,13.8,23.1,20.5,39c6.7-16,20.5-26,20.5-39
	C87.2,48.1,78,38.9,66.8,38.9z M50.1,55.1h12.8l3.9-12.5l3.9,12.5h12.8l-10.3,6.9l5.5,12l-11.9-7.5L54.9,74l5.5-12L50.1,55.1z"/>
<path id="_" class="st1" d="M92.9,39.9c-2.7-2.7-9.4,0-13.5,4.1l-6.7,6.7l-28-6.7c-0.4-0.1-0.9,0-1.3,0.3l-5.4,5.4
	c-0.3,0.3-0.4,0.7-0.4,1.1c0.1,0.4,0.3,0.8,0.7,1l21.4,11.7L48.9,74.5l-8.2-2.2c-0.1-0.1-0.2-0.1-0.3-0.1c-0.4,0-0.7,0.1-1,0.4
	l-4,4.1c-0.3,0.3-0.4,0.7-0.4,1c0,0.4,0.2,0.7,0.5,1l10.6,7.9l8,10.6c0.2,0.3,0.6,0.5,1,0.5h0.1c0.4,0,0.7-0.1,1-0.4l4-4
	c0.3-0.3,0.5-0.8,0.3-1.3l-2.2-8.2L69.2,73L81,94.4c0.2,0.4,0.5,0.6,0.9,0.7c0.1,0,0.2,0,0.3,0c0.3,0,0.6-0.1,0.8-0.3l5.4-4.1
	c0.4-0.3,0.6-0.8,0.5-1.4l-6.7-29.3l6.8-6.8C92.9,49.3,95.6,42.6,92.9,39.9z"/>
</svg>
